Genre:Drama
Language:English
IMDb:http://www.imdb.com/title/tt1360826/
Source:DVD


General
Complete name :Rust.2010.DvDRip.XviD.Ac3.Feel-Free
Format : AVI
Format/Info : Audio Video Interleave
File size : 1 016 MiB
Duration : 1h 34mn
Overall bit rate : 1 509 Kbps
Video #0
Muxing mode : Packed bitstream
Codec ID : XVID
Codec ID/Hint : XviD
Duration : 1h 34mn
Bit rate : 1 051 Kbps
Width : 652 pixels
Height : 352 pixels
Display aspect ratio : 1.852
Frame rate : 23.976 fps
Resolution : 24 bits
Colorimetry : 4:2:0
Scan type : Progressive
Bits/(Pixel*Frame) : 0.191
Stream size : 708 MiB (70%)
Writing library : XviD 1.2.1 (UTC 2008-12-04)
Audio #1
ID : 1
Format : AC-3
Format/Info : Audio Coding 3
Codec ID : 2000
Duration : 1h 34mn
Bit rate mode : Constant
Bit rate : 448 Kbps
Channel(s) : 6 channels
Channel positions : Front: L C R, Surround: L R, LFE
Sampling rate : 48.0 KHz
Stream size : 302 MiB (30%)
Alignment : Split accross interleaves
Interleave, duration : 42 ms (1.00 video frame)
Interleave, preload duration : 500 ms

Plot:
In the midst of a midlife crisis of faith, a man finds hope where he least expects it – his hometown. James Moore (Golden Globe nominee Corbin Bernsen) is a former pastor who returns home to discover a family new to the area has been killed in a mysterious fire, and his childhood friend is implicated in the murder. Convinced of his friendâ™s innocence, James sets out on a mission to find the truth… and in the process, rediscovers his own lost faith. An uplifting drama about faith, family, and the powerful ties that bind a community together.
